<?xml version="1.0" encoding="UTF-8"?>
<svg id="Capa_1" data-name="Capa 1" xmlns="http://www.w3.org/2000/svg" viewBox="0 0 264.62 69.66">
  <defs>
    <style>
      .cls-1 {
        fill: #020202;
      }
    </style>
  </defs>
  <g>
    <path d="M76.96,35.16c0,1.21.42,1.81,1.27,1.81.59,0,1.08-.09,1.47-.27s.64-.27.77-.27c.27,0,.41.14.41.44,0,1.13-.59,2.1-1.77,2.91-1.24.85-2.51,1.07-3.82.63-.85-.3-1.48-.95-1.88-1.95-.2-.51-.29-.98-.29-1.39,0-.69.07-1.4.2-2.17-1.22,2.49-2.73,4.21-4.54,5.15-.72.37-1.49.56-2.3.56s-1.51-.16-2.11-.5-1.1-.79-1.52-1.38c-.85-1.23-1.24-2.78-1.16-4.64.08-2.33.76-4.63,2.07-6.87,1.2-2.1,2.7-3.81,4.53-5.14,1.82-1.35,3.53-2.02,5.12-2.02s2.86.73,3.83,2.19c.9-1.46,1.71-2.19,2.39-2.19.75,0,1.31.14,1.69.41.72.52.98.98.76,1.37-3.29,6.74-4.99,10.94-5.07,12.58-.02.24-.04.49-.04.75h.01ZM66.05,35.23c0,1.58.5,2.36,1.51,2.36.77,0,1.72-.65,2.85-1.97,1.65-1.93,3.11-4.53,4.39-7.79.4-1.02.75-2.05,1.02-3.07-.05-.89-.42-1.55-1.12-1.97-.24-.14-.59-.22-1.06-.22s-1.01.17-1.63.51-1.23.81-1.81,1.39-1.13,1.28-1.63,2.09-.95,1.69-1.33,2.62c-.79,2.02-1.2,4.03-1.2,6.02v.02Z"/>
    <path d="M83.67,39.91c-.26-.2-.47-.41-.63-.66s-.24-.46-.25-.63.02-.39.11-.65.2-.57.35-.94c2.68-6.59,4.02-11,4.02-13.26-.04-.63-.25-1.08-.65-1.34l-.39-.27c-.12-.09-.19-.25-.19-.48s.08-.45.25-.65.39-.39.66-.56c.57-.3,1.14-.46,1.74-.46s1.07.07,1.39.2.62.3.86.53c.5.47.75.97.76,1.49s-.05,1.06-.17,1.59-.27,1.07-.45,1.58-.34,1.01-.51,1.48-.28.81-.34,1.03c-.11.46-.14.75-.12.87.32-.27.5-.54.57-.81l.76-1.46c1.71-3.07,3.37-5.1,5-6.1.47-.27,1.03-.41,1.7-.41s1.2.23,1.6.7.62.98.64,1.55-.02,1.03-.12,1.4-.25.73-.45,1.06c-.44.73-.96,1.1-1.58,1.1-.17,0-.33-.05-.47-.17l-.44-.37c-.44-.38-.85-.57-1.25-.57s-.88.26-1.46.78-1.16,1.2-1.79,2.02c-2.07,2.74-3.77,5.81-5.07,9.21l-.87,2.29c-.22.57-.42.97-.59,1.21s-.42.36-.76.36-.66-.07-1-.19-.63-.28-.89-.48h.02Z"/>
    <path d="M114.84,23.75c-.76,0-2.16,1.1-4.17,3.31-1.51,1.72-2.6,3-3.29,3.87l-1.77,2.24c-.76,1.45-1.36,2.64-1.79,3.6l-1.07,2.29c-.27.57-.51.96-.72,1.19s-.48.35-.83.35-.69-.07-1-.19-.6-.28-.84-.48c-.5-.42-.75-.88-.75-1.37,0-.2.14-.59.44-1.16l.75-1.59c.24-.47.51-1.08.83-1.81l1.1-2.7c1.55-3.86,2.32-6.37,2.32-7.49,0-.6-.2-1.04-.59-1.34l-.39-.27c-.13-.09-.2-.25-.2-.48s.09-.45.26-.65.41-.39.7-.56c.59-.3,1.19-.46,1.79-.46s1.07.07,1.4.2.63.3.88.53c.5.46.75.94.75,1.44s-.07,1-.2,1.5-.29,1.01-.49,1.53-.4,1.02-.63,1.5c-.52,1.13-.85,1.82-.97,2.08s-.16.35-.11.28c2.39-3.1,3.84-4.94,4.33-5.51,1.01-1.16,1.8-1.97,2.36-2.39,1.03-.77,2.01-1.16,2.94-1.16s1.67.29,2.21.87.83,1.34.83,2.29c0,.83-.21,1.8-.63,2.91s-.7,1.89-.85,2.34l2.9-3.82,1.61-1.93c.97-1.09,1.82-1.81,2.56-2.14s1.34-.51,1.8-.51.93.09,1.37.25.84.41,1.15.73c.66.64,1,1.49,1,2.56s-.24,2.07-.71,3.15-.88,1.96-1.24,2.64-.7,1.38-1.02,2.08c-.96,2.09-1.44,3.64-1.44,4.64,0,.71.29,1.07.87,1.07s1.06-.12,1.5-.36.74-.36.87-.36c.27,0,.41.14.41.41,0,1.16-.6,2.14-1.79,2.93-.79.53-1.53.81-2.19.81s-1.2-.08-1.6-.24-.77-.4-1.1-.75c-.73-.76-1.1-1.71-1.1-2.85s.14-2.19.44-3.15.63-1.88,1.02-2.79.79-1.72,1.19-2.48.71-1.35.91-1.8c.42-.91.63-1.59.63-2.02,0-.51-.27-.76-.81-.76-.71,0-1.98,1.18-3.82,3.52-1.39,1.82-2.35,3.13-2.9,3.93l-1.36,1.97c-.76,1.45-1.34,2.64-1.75,3.6l-1,2.29c-.25.57-.47.96-.65,1.19s-.44.35-.76.35-.64-.05-.96-.15-.58-.24-.79-.41c-.51-.38-.76-.78-.76-1.21s.14-1.01.42-1.75.63-1.57,1.06-2.49l2.75-5.82c.98-2.17,1.48-3.54,1.48-4.13s-.27-.87-.81-.87h-.01ZM116.79,29.3s.02,0,.02-.02l.02-.04s-.04.04-.04.05h0Z"/>
    <path d="M148.02,35.16c0,1.21.42,1.81,1.27,1.81.59,0,1.08-.09,1.47-.27s.64-.27.77-.27c.27,0,.41.14.41.44,0,1.13-.59,2.1-1.77,2.91-1.24.85-2.51,1.07-3.82.63-.85-.3-1.48-.95-1.88-1.95-.2-.51-.29-.98-.29-1.39,0-.69.07-1.4.2-2.17-1.22,2.49-2.73,4.21-4.54,5.15-.72.37-1.49.56-2.3.56s-1.51-.16-2.11-.5-1.1-.79-1.52-1.38c-.85-1.23-1.24-2.78-1.16-4.64.08-2.33.76-4.63,2.07-6.87,1.2-2.1,2.7-3.81,4.53-5.14,1.82-1.35,3.53-2.02,5.12-2.02s2.86.73,3.83,2.19c.9-1.46,1.71-2.19,2.39-2.19.75,0,1.31.14,1.69.41.72.52.98.98.76,1.37-3.29,6.74-4.99,10.94-5.07,12.58-.02.24-.04.49-.04.75h.01ZM137.1,35.23c0,1.58.5,2.36,1.51,2.36.77,0,1.72-.65,2.85-1.97,1.65-1.93,3.11-4.53,4.39-7.79.4-1.02.75-2.05,1.02-3.07-.05-.89-.42-1.55-1.12-1.97-.24-.14-.59-.22-1.06-.22s-1.01.17-1.63.51-1.23.81-1.81,1.39-1.13,1.28-1.63,2.09-.95,1.69-1.33,2.62c-.79,2.02-1.2,4.03-1.2,6.02v.02Z"/>
    <path d="M155.6,39.6c-.33-.34-.6-.77-.79-1.31s-.3-1.14-.3-1.85.16-1.64.48-2.82.73-2.53,1.23-4.03l1.65-4.9c2.35-6.81,3.7-12.09,4.07-15.82.12-1.1.65-1.65,1.61-1.65.6,0,1.1.14,1.49.44.76.58,1.13,1.22,1.1,1.93s-.15,1.57-.37,2.59-.51,2.12-.87,3.32-.76,2.47-1.22,3.81l-2.71,7.99c-1.56,4.54-2.34,7.47-2.34,8.79,0,.71.29,1.07.87,1.07s1.06-.12,1.5-.36.74-.36.87-.36c.27,0,.41.14.41.41,0,1.16-.6,2.14-1.79,2.93-.79.53-1.53.81-2.19.81s-1.2-.08-1.6-.24-.77-.4-1.1-.75h-.01Z"/>
    <path d="M181.07,35.16c0,1.21.42,1.81,1.27,1.81.59,0,1.08-.09,1.47-.27s.64-.27.77-.27c.27,0,.41.14.41.44,0,1.13-.59,2.1-1.77,2.91-1.24.85-2.51,1.07-3.82.63-.85-.3-1.48-.95-1.88-1.95-.2-.51-.29-.98-.29-1.39,0-.69.07-1.4.2-2.17-1.22,2.49-2.73,4.21-4.54,5.15-.72.37-1.49.56-2.3.56s-1.51-.16-2.11-.5-1.1-.79-1.52-1.38c-.85-1.23-1.24-2.78-1.16-4.64.08-2.33.76-4.63,2.07-6.87,1.2-2.1,2.7-3.81,4.53-5.14,1.82-1.35,3.53-2.02,5.12-2.02s2.86.73,3.83,2.19c.9-1.46,1.71-2.19,2.39-2.19.75,0,1.31.14,1.69.41.72.52.98.98.76,1.37-3.29,6.74-4.99,10.94-5.07,12.58-.02.24-.04.49-.04.75h.01ZM170.16,35.23c0,1.58.5,2.36,1.51,2.36.77,0,1.72-.65,2.85-1.97,1.65-1.93,3.11-4.53,4.39-7.79.4-1.02.75-2.05,1.02-3.07-.05-.89-.42-1.55-1.12-1.97-.24-.14-.59-.22-1.06-.22s-1.01.17-1.63.51-1.23.81-1.81,1.39-1.13,1.28-1.63,2.09-.95,1.69-1.33,2.62c-.79,2.02-1.2,4.03-1.2,6.02v.02Z"/>
    <path d="M201.89,23.75c-.4,0-.98.39-1.73,1.16s-1.39,1.49-1.95,2.13l-1.68,2-3.22,4.11c-.76,1.45-1.36,2.64-1.79,3.6l-1.07,2.29c-.27.57-.51.96-.72,1.19s-.48.35-.83.35-.69-.07-1-.19-.6-.28-.84-.48c-.5-.42-.75-.88-.75-1.37,0-.2.14-.59.44-1.16l.75-1.59c.24-.47.51-1.08.83-1.81l1.1-2.7c1.55-3.86,2.32-6.37,2.32-7.49,0-.6-.2-1.04-.59-1.34l-.39-.27c-.13-.09-.2-.25-.2-.48s.09-.45.26-.65.41-.39.7-.56c.59-.3,1.19-.46,1.79-.46s1.06.07,1.38.2.6.3.83.53c.49.46.73.94.73,1.44s-.07,1-.19,1.5-.28,1.01-.47,1.53-.39,1.02-.6,1.52-.4.94-.57,1.3l-.39.85c-.11.21-.13.27-.08.2,1.46-2.02,2.42-3.32,2.87-3.9l1.37-1.65c1.01-1.18,1.81-1.96,2.38-2.34,1.16-.78,2.09-1.18,2.75-1.18s1.23.09,1.69.25.86.41,1.2.73c.72.66,1.08,1.52,1.08,2.56s-.24,2.12-.71,3.24-.88,2.05-1.23,2.74-.67,1.41-.99,2.13c-.98,2.19-1.48,3.79-1.48,4.78,0,.45.36.66,1.07.66.56,0,1.06-.12,1.5-.36s.74-.36.87-.36c.27,0,.41.14.41.41,0,1.16-.6,2.14-1.79,2.93-.79.53-1.53.81-2.2.81s-1.22-.08-1.67-.22-.83-.37-1.18-.69c-.77-.7-1.16-1.67-1.16-2.91,0-1.52.48-3.42,1.44-5.7.7-1.56,1.19-2.63,1.48-3.21l.66-1.39c.4-.84.61-1.5.61-1.98s-.36-.73-1.08-.73h0Z"/>
    <path d="M229.95,36.42c.27,0,.41.14.41.44,0,1.13-.59,2.1-1.75,2.91-.77.56-1.5.83-2.19.83s-1.24-.08-1.64-.24-.77-.4-1.1-.75c-.73-.78-1.1-1.87-1.1-3.24,0-.27.05-.72.15-1.32-1.07,1.64-1.97,2.8-2.73,3.46-1.53,1.39-3.04,2.09-4.51,2.09-2.32,0-3.84-1.04-4.56-3.15-.26-.77-.39-1.74-.39-2.91s.17-2.35.53-3.54.84-2.33,1.45-3.41,1.32-2.08,2.12-3,1.65-1.73,2.55-2.41c1.92-1.43,3.65-2.14,5.19-2.14s2.79.63,3.71,1.88c2.29-7.82,3.99-12.42,5.15-13.82.49-.58,1-.87,1.53-.87.89,0,1.57.25,2.02.76.14.17.22.34.22.51s-.11.49-.32.95-.52,1.2-.93,2.22c-1.16,3.08-1.98,5.33-2.46,6.77-1.21,3.66-2.02,6.17-2.44,7.55l-1.08,3.64c-.94,3.24-1.39,5.3-1.39,6.17s.33,1.32.97,1.32c.59,0,1.07-.08,1.41-.24l.75-.36c.14-.08.28-.12.41-.12v.02ZM216.44,37.64c1.35,0,2.9-1.32,4.64-3.95,1.82-2.73,3.09-5.69,3.82-8.91-.05-.89-.42-1.55-1.12-1.97-.24-.14-.6-.22-1.07-.22s-1.03.17-1.68.52-1.25.82-1.85,1.4-1.15,1.28-1.68,2.08-.97,1.63-1.35,2.53c-.83,1.94-1.24,3.84-1.24,5.71s.5,2.81,1.51,2.81h.01Z"/>
    <path d="M239.33,36.71c.34,0,.51.22.51.66,0,.59-.27,1.2-.81,1.83-.78.91-1.84,1.37-3.17,1.37-1.52,0-2.56-.62-3.12-1.85-.21-.44-.32-.96-.32-1.58s.11-1.31.33-2.06.49-1.55.81-2.38.67-1.68,1.06-2.53l1.04-2.48c.76-1.85,1.14-3.07,1.14-3.66s-.07-.98-.19-1.18-.26-.34-.4-.45l-.39-.27c-.13-.09-.2-.25-.2-.48s.09-.45.26-.65.41-.39.7-.56c.59-.3,1.27-.46,2.07-.46,1.93,0,2.9.5,2.9,1.51,0,1.18-.3,2.53-.93,4.04s-1.14,2.74-1.58,3.67l-1.18,2.71c-.87,1.99-1.3,3.43-1.3,4.31,0,.58.29.87.87.87s.99-.08,1.27-.22.5-.22.63-.22l-.02.03ZM243.36,15.42c-.29.3-.62.56-.98.75s-.75.3-1.16.36-.79-.01-1.15-.19-.67-.41-.94-.73c-.57-.65-.85-1.32-.85-1.98s.11-1.18.33-1.5.49-.61.82-.82c.63-.4,1.22-.61,1.79-.61s.99.04,1.3.12.6.21.86.39c.64.44.97.96.97,1.58s-.09,1.14-.26,1.56-.41.77-.7,1.08h-.01Z"/>
    <path d="M259.44,35.16c0,1.21.42,1.81,1.27,1.81.59,0,1.08-.09,1.47-.27s.64-.27.77-.27c.27,0,.41.14.41.44,0,1.13-.59,2.1-1.77,2.91-1.24.85-2.51,1.07-3.82.63-.85-.3-1.48-.95-1.88-1.95-.2-.51-.29-.98-.29-1.39,0-.69.07-1.4.2-2.17-1.22,2.49-2.73,4.21-4.54,5.15-.72.37-1.49.56-2.3.56s-1.51-.16-2.11-.5-1.1-.79-1.52-1.38c-.85-1.23-1.24-2.78-1.16-4.64.08-2.33.76-4.63,2.07-6.87,1.2-2.1,2.7-3.81,4.53-5.14,1.82-1.35,3.53-2.02,5.12-2.02s2.86.73,3.83,2.19c.9-1.46,1.71-2.19,2.39-2.19.75,0,1.31.14,1.69.41.72.52.98.98.76,1.37-3.29,6.74-4.99,10.94-5.07,12.58-.02.24-.04.49-.04.75h.01ZM248.54,35.23c0,1.58.5,2.36,1.51,2.36.77,0,1.72-.65,2.85-1.97,1.65-1.93,3.11-4.53,4.39-7.79.4-1.02.75-2.05,1.02-3.07-.05-.89-.42-1.55-1.12-1.97-.24-.14-.59-.22-1.06-.22s-1.01.17-1.63.51-1.23.81-1.81,1.39-1.13,1.28-1.63,2.09-.95,1.69-1.33,2.62c-.79,2.02-1.2,4.03-1.2,6.02v.02Z"/>
  </g>
  <g>
    <path d="M46.94,43.43c.62,1.3,3.03,6.26,3.94,6.74.63.33,3.64-.91,4.36-1.24,15.06-6.76,27.28-9.03,31.39,4.2,2.53,8.12-3.73,14.16-10.96,15.82-10.02,2.29-19.54-1.02-26.23-8.34-1.79-1.95-2.26-2.81-5.28-1.79-12.78,4.34-21.46,8.17-35.66,5.75-3.16-.54-5.06-1.18-8.51-4.31.53.12,1.08.26,1.59.46,8.78,3.37,16.03,3.15,25.53.69,7.17-1.86,12.34-4.45,18.47-7.06.12-.26-.21.86-.28.61-.25-.84-2.01-3.84-2.66-4.93-8.97-15.05-4.34-24.48,4.29-6.57h0ZM53.09,54.67c6.5,7.59,18.63,13.4,26.88,7.11,2.18-1.65,2.64-3.3,2.29-6.44-.78-6.91-5.91-9.01-12.5-6.91-3.66,1.16-12.04,3.67-15.29,5.54-.22.12-1.44.57-1.38.71Z"/>
    <path d="M40.71,46.39c-.84-.78-1.39-2.69-2.09-3.71s-1.35-2.09-1.96-3.19l-1.81-3.31c-2.11-4.01-3.89-6.36-5.34-7.03-4.16,11.15-8.6,17.34-13.34,18.57-.3.09-.65.12-1.02.12s-.73-.07-1.04-.19-.59-.28-.82-.49c-.47-.39-.71-.81-.71-1.24s.16-.78.49-1.02c3.54-2.6,7.11-9.28,10.71-20.07,2.09-6.28,3.54-11.95,4.35-17,.23-1.41.34-2.49.34-3.25-.84.04-1.62.25-2.35.64s-1.35.75-1.86,1.08-.94.49-1.26.49-.67-.1-1.06-.3-.72-.46-1.02-.76c-.72-.72-1.08-1.35-1.08-1.9s.17-1.01.51-1.38.76-.69,1.27-.95,1.08-.5,1.7-.69,1.23-.34,1.83-.45C26.26.12,27.24.01,28.06.01s1.68.13,2.58.38c.9.25,1.68.63,2.33,1.12,1.44,1.04,2.14,2.33,2.14,3.86,0,3.25-.98,8.4-2.95,15.47-.63,2.29-1.35,4.58-2.14,6.87,4.95-3.82,7.96-6.17,9-7.04s2.21-1.92,3.48-3.15,2.38-2.49,3.34-3.81c2.09-2.86,3.13-5.74,3.13-8.62,0-1.07-.27-1.99-.83-2.8-.16-.26-.25-.52-.25-.76s.1-.47.29-.67.44-.38.72-.52c.53-.23,1.21-.34,2.04-.34s1.58.17,2.24.53,1.22.82,1.68,1.36c.88,1.12,1.32,2.47,1.32,4.04s-.32,3.08-.95,4.54-1.48,2.84-2.54,4.13-2.26,2.51-3.64,3.68-2.8,2.29-4.27,3.34l-4.48,3.19c-1.47,1.02-2.84,2.05-4.11,3.07,1.49,1.16,3.23,3.2,5.21,6.11l2.36,3.53c1.7,2.6,2.45,5.8,3.49,6.61"/>
    <g>
      <path class="cls-1" d="M46.71,31.95s1.86,4.42,1.47,4.67l1.6,3.17,2.02-1.02c1.14,2.09,1.32,4.76.4,6.94-.25.27-.29-.33-.64-.29-1.18.12-.05,1.23-.19,1.52l-1.13.71-8.04-15.96,1.26-.64c.2.37.45,1.2.97,1.08.9-.39.12-.76.04-1.32-.07-.49,2.47-1.27,2.22.04.19.04.01,1.1.01,1.1Z"/>
      <circle class="cls-1" cx="52.67" cy="34.57" r="1.27"/>
      <path class="cls-1" d="M49.66,34.49c.04.63.7.84,1.08.41.14-.15,1.44-3.64,1.47-3.91.08-.67-.93-.69-1.08-.56s-1.48,3.83-1.46,4.05h-.01Z"/>
      <path class="cls-1" d="M52.69,36.79c-.42.46-.13,1.08.45,1.07.21,0,3.61-1.47,3.84-1.64.53-.41-.14-1.14-.35-1.16s-3.79,1.58-3.94,1.73h0Z"/>
      <ellipse class="cls-1" cx="49.72" cy="37.82" rx="2.5" ry="1.43" transform="translate(-12.32 45.09) rotate(-43.94)"/>
    </g>
  </g>
</svg>