<?xml version="1.0" encoding="UTF-8"?>
<svg id="Capa_1" data-name="Capa 1" xmlns="http://www.w3.org/2000/svg" viewBox="0 0 267.55 48.3">
  <defs>
    <style>
      .cls-1 {
        fill: #fff;
      }
    </style>
  </defs>
  <path class="cls-1" d="M40.89,43.48c.37,0,.56.23.56.68s-.15.91-.45,1.36-.74.89-1.31,1.3c-1.42.99-2.93,1.48-4.52,1.48s-2.89-.24-3.88-.71-1.9-1.11-2.75-1.9-1.62-1.7-2.32-2.73-1.36-2.1-1.98-3.21l-1.82-3.34c-2.12-4.04-3.91-6.39-5.37-7.07-4.18,11.22-8.66,17.45-13.43,18.68-.31.08-.65.12-1.03.12s-.73-.06-1.05-.19-.59-.29-.82-.49c-.47-.39-.71-.81-.71-1.25s.16-.79.49-1.03c3.56-2.61,7.15-9.35,10.78-20.2,2.1-6.32,3.56-12.02,4.39-17.11.23-1.42.34-2.51.34-3.27-.84.04-1.63.26-2.36.65s-1.35.75-1.87,1.08-.94.49-1.27.49-.68-.1-1.07-.31-.73-.46-1.03-.77c-.72-.72-1.08-1.36-1.08-1.91s.17-1.02.51-1.39.77-.69,1.28-.96,1.09-.5,1.71-.69,1.24-.34,1.84-.45c1.13-.23,2.11-.34,2.93-.34s1.69.13,2.59.39,1.69.63,2.35,1.13c1.44,1.05,2.16,2.35,2.16,3.89,0,3.27-.99,8.46-2.96,15.56-.64,2.31-1.36,4.61-2.16,6.92,4.98-3.85,8-6.21,9.06-7.09s2.23-1.93,3.5-3.17,2.4-2.51,3.37-3.83c2.1-2.88,3.15-5.77,3.15-8.68,0-1.07-.28-2.01-.83-2.81-.16-.27-.25-.52-.25-.77s.1-.47.29-.68.44-.38.73-.52c.54-.23,1.22-.34,2.05-.34s1.59.18,2.25.54,1.23.82,1.68,1.37c.89,1.13,1.33,2.49,1.33,4.06s-.32,3.1-.96,4.57-1.49,2.86-2.55,4.15-2.28,2.53-3.66,3.71-2.81,2.3-4.29,3.37l-4.51,3.21c-1.48,1.03-2.86,2.06-4.14,3.09,1.5,1.17,3.25,3.22,5.25,6.15l2.38,3.55c1.71,2.61,3.09,4.33,4.14,5.14s1.92,1.22,2.61,1.22,1.25-.11,1.68-.32.77-.32,1.02-.32Z"/>
  <path class="cls-1" d="M54.14,34.08c0,1.37.48,2.06,1.45,2.06.67,0,1.23-.1,1.67-.31s.73-.31.88-.31c.31,0,.47.16.47.49,0,1.28-.67,2.39-2.01,3.31-1.42.97-2.86,1.21-4.34.72-.97-.34-1.68-1.08-2.15-2.21-.22-.58-.34-1.11-.34-1.59,0-.78.07-1.6.22-2.46-1.39,2.83-3.11,4.79-5.17,5.86-.82.42-1.69.63-2.62.63s-1.73-.19-2.4-.57-1.26-.91-1.73-1.58c-.97-1.4-1.41-3.16-1.32-5.28.09-2.65.87-5.26,2.35-7.81,1.36-2.39,3.07-4.33,5.14-5.84,2.07-1.54,4.01-2.3,5.81-2.3s3.26.83,4.36,2.48c1.03-1.65,1.94-2.48,2.73-2.48.85,0,1.49.16,1.92.47.82.6,1.11,1.12.87,1.57-3.74,7.66-5.67,12.43-5.77,14.31-.03.27-.04.55-.04.85ZM41.72,34.17c0,1.79.57,2.68,1.72,2.68.88,0,1.96-.75,3.24-2.24,1.88-2.19,3.54-5.14,4.99-8.86.46-1.16.85-2.33,1.16-3.49-.06-1.01-.48-1.76-1.27-2.24-.27-.16-.67-.25-1.2-.25s-1.15.19-1.86.58-1.39.92-2.06,1.59-1.28,1.46-1.86,2.38-1.08,1.91-1.51,2.99c-.91,2.3-1.36,4.58-1.36,6.84Z"/>
  <path class="cls-1" d="M61.76,39.49c-.3-.22-.54-.47-.72-.75s-.28-.51-.29-.72.03-.45.12-.74.23-.64.39-1.06c3.04-7.48,4.56-12.51,4.56-15.07-.04-.72-.29-1.22-.74-1.52l-.45-.31c-.13-.1-.21-.29-.21-.55s.09-.51.28-.75.45-.45.76-.63c.64-.34,1.3-.51,1.98-.51s1.21.07,1.59.22.7.35.97.6c.57.54.85,1.1.86,1.7s-.06,1.2-.2,1.81-.31,1.21-.5,1.8-.39,1.15-.58,1.68-.32.92-.38,1.17c-.12.52-.16.85-.13.98.36-.31.57-.62.65-.92l.87-1.65c1.94-3.49,3.83-5.8,5.68-6.93.54-.31,1.18-.47,1.93-.47s1.36.26,1.82.79.7,1.11.73,1.76-.02,1.17-.13,1.6-.28.82-.5,1.2c-.49.83-1.09,1.25-1.79,1.25-.19,0-.37-.07-.54-.2l-.49-.42c-.49-.43-.97-.65-1.42-.65s-1.01.3-1.65.89-1.32,1.36-2.02,2.3c-2.36,3.12-4.28,6.6-5.77,10.47l-.98,2.59c-.25.64-.48,1.1-.67,1.38s-.48.41-.86.41-.76-.07-1.14-.21-.72-.32-1.02-.55Z"/>
  <path class="cls-1" d="M97.21,21.11c-.86,0-2.45,1.25-4.74,3.76-1.71,1.95-2.96,3.42-3.73,4.41l-2.01,2.55c-.86,1.64-1.54,3-2.04,4.09l-1.21,2.59c-.31.64-.59,1.09-.82,1.35s-.54.39-.94.39-.78-.07-1.14-.21-.68-.32-.95-.55c-.57-.48-.85-1-.85-1.57,0-.22.16-.66.49-1.32l.85-1.81c.27-.54.58-1.22.94-2.06l1.25-3.06c1.76-4.4,2.64-7.24,2.64-8.52,0-.69-.22-1.19-.67-1.52l-.45-.31c-.15-.1-.22-.29-.22-.55s.1-.51.3-.75.47-.45.79-.63c.67-.34,1.35-.51,2.02-.51s1.21.07,1.6.22.72.35,1.01.6c.57.52.85,1.07.85,1.63s-.07,1.14-.22,1.71-.34,1.16-.56,1.74-.46,1.16-.72,1.71c-.6,1.28-.97,2.07-1.11,2.36s-.18.4-.12.32c2.73-3.53,4.37-5.62,4.92-6.26,1.15-1.33,2.04-2.24,2.68-2.73,1.18-.88,2.29-1.32,3.34-1.32s1.89.33,2.52.98.94,1.52.94,2.59c0,.94-.24,2.04-.72,3.31s-.8,2.15-.96,2.66l3.29-4.34,1.83-2.19c1.1-1.24,2.07-2.05,2.91-2.44s1.52-.58,2.05-.58,1.05.1,1.57.29.95.47,1.31.83c.76.73,1.14,1.7,1.14,2.91s-.27,2.36-.81,3.58-1.01,2.23-1.41,3.01-.79,1.57-1.16,2.36c-1.09,2.37-1.63,4.13-1.63,5.28,0,.81.33,1.21.98,1.21s1.2-.13,1.71-.4.85-.4,1-.4c.31,0,.47.16.47.47,0,1.33-.68,2.44-2.04,3.33-.91.61-1.74.92-2.49.92s-1.36-.09-1.82-.27-.88-.46-1.25-.85c-.83-.86-1.25-1.95-1.25-3.24s.16-2.49.49-3.58.72-2.14,1.16-3.16.9-1.96,1.35-2.82.8-1.54,1.04-2.05c.48-1.04.72-1.81.72-2.3,0-.58-.31-.87-.92-.87-.81,0-2.25,1.33-4.34,4-1.58,2.07-2.68,3.56-3.29,4.47l-1.54,2.24c-.86,1.64-1.53,3-1.99,4.09l-1.14,2.59c-.28.64-.53,1.09-.74,1.35s-.5.39-.87.39-.73-.06-1.08-.18-.65-.28-.91-.47c-.58-.43-.87-.89-.87-1.38s.16-1.15.48-1.99.72-1.79,1.2-2.83l3.13-6.62c1.12-2.46,1.68-4.02,1.68-4.69s-.31-1-.92-1ZM99.42,27.42s.02,0,.02-.02l.02-.04s-.04.05-.04.07Z"/>
  <path class="cls-1" d="M134.94,34.08c0,1.37.48,2.06,1.45,2.06.67,0,1.23-.1,1.67-.31s.73-.31.88-.31c.31,0,.47.16.47.49,0,1.28-.67,2.39-2.01,3.31-1.42.97-2.86,1.21-4.34.72-.97-.34-1.68-1.08-2.15-2.21-.22-.58-.34-1.11-.34-1.59,0-.78.07-1.6.22-2.46-1.39,2.83-3.11,4.79-5.17,5.86-.82.42-1.69.63-2.62.63s-1.73-.19-2.4-.57-1.26-.91-1.73-1.58c-.97-1.4-1.41-3.16-1.32-5.28.09-2.65.87-5.26,2.35-7.81,1.36-2.39,3.07-4.33,5.14-5.84,2.07-1.54,4.01-2.3,5.81-2.3s3.26.83,4.36,2.48c1.03-1.65,1.94-2.48,2.73-2.48.85,0,1.49.16,1.92.47.82.6,1.11,1.12.87,1.57-3.74,7.66-5.67,12.43-5.77,14.31-.03.27-.04.55-.04.85ZM122.53,34.17c0,1.79.57,2.68,1.72,2.68.88,0,1.96-.75,3.24-2.24,1.88-2.19,3.54-5.14,4.99-8.86.46-1.16.85-2.33,1.16-3.49-.06-1.01-.48-1.76-1.27-2.24-.27-.16-.67-.25-1.2-.25s-1.15.19-1.86.58-1.39.92-2.06,1.59-1.28,1.46-1.86,2.38-1.08,1.91-1.51,2.99c-.91,2.3-1.36,4.58-1.36,6.84Z"/>
  <path class="cls-1" d="M143.57,39.14c-.37-.39-.67-.88-.91-1.49s-.35-1.3-.35-2.1.18-1.87.55-3.21.83-2.87,1.4-4.58l1.88-5.57c2.67-7.75,4.21-13.75,4.63-17.98.13-1.25.75-1.88,1.83-1.88.69,0,1.25.16,1.7.49.86.66,1.28,1.39,1.25,2.19s-.17,1.79-.42,2.94-.58,2.42-.98,3.78-.86,2.81-1.39,4.33l-3.09,9.08c-1.77,5.16-2.66,8.49-2.66,10,0,.81.33,1.21.98,1.21s1.2-.13,1.71-.4.85-.4,1-.4c.31,0,.47.16.47.47,0,1.33-.68,2.44-2.04,3.33-.91.61-1.74.92-2.49.92s-1.36-.09-1.82-.27-.88-.46-1.25-.85Z"/>
  <path class="cls-1" d="M172.53,34.08c0,1.37.48,2.06,1.45,2.06.67,0,1.23-.1,1.67-.31s.74-.31.88-.31c.31,0,.47.16.47.49,0,1.28-.67,2.39-2.01,3.31-1.42.97-2.86,1.21-4.34.72-.97-.34-1.68-1.08-2.15-2.21-.22-.58-.34-1.11-.34-1.59,0-.78.07-1.6.22-2.46-1.39,2.83-3.11,4.79-5.17,5.86-.82.42-1.69.63-2.62.63s-1.73-.19-2.4-.57-1.26-.91-1.73-1.58c-.97-1.4-1.41-3.16-1.32-5.28.09-2.65.87-5.26,2.35-7.81,1.36-2.39,3.07-4.33,5.14-5.84,2.07-1.54,4.01-2.3,5.81-2.3s3.26.83,4.36,2.48c1.03-1.65,1.94-2.48,2.73-2.48.85,0,1.49.16,1.92.47.82.6,1.11,1.12.87,1.57-3.74,7.66-5.67,12.43-5.77,14.31-.03.27-.04.55-.04.85ZM160.12,34.17c0,1.79.57,2.68,1.72,2.68.88,0,1.96-.75,3.24-2.24,1.88-2.19,3.54-5.14,4.99-8.86.46-1.16.85-2.33,1.16-3.49-.06-1.01-.48-1.76-1.27-2.24-.27-.16-.67-.25-1.2-.25s-1.15.19-1.86.58-1.39.92-2.06,1.59-1.28,1.46-1.86,2.38-1.08,1.91-1.51,2.99c-.91,2.3-1.36,4.58-1.36,6.84Z"/>
  <path class="cls-1" d="M196.19,21.11c-.46,0-1.12.44-1.97,1.33s-1.59,1.7-2.21,2.43l-1.9,2.28-3.67,4.67c-.86,1.64-1.54,3-2.04,4.09l-1.21,2.59c-.31.64-.59,1.09-.82,1.35s-.54.39-.94.39-.78-.07-1.14-.21-.68-.32-.95-.55c-.57-.48-.85-1-.85-1.57,0-.22.16-.66.49-1.32l.85-1.81c.27-.54.58-1.22.94-2.06l1.25-3.06c1.76-4.4,2.64-7.24,2.64-8.52,0-.69-.22-1.19-.67-1.52l-.45-.31c-.15-.1-.22-.29-.22-.55s.1-.51.3-.75.47-.45.79-.63c.67-.34,1.34-.51,2.02-.51s1.2.07,1.58.22.69.35.94.6c.55.52.83,1.07.83,1.63s-.07,1.14-.21,1.71-.32,1.16-.54,1.74-.44,1.17-.68,1.73-.45,1.06-.65,1.48l-.45.96c-.12.24-.15.31-.09.22,1.65-2.3,2.74-3.77,3.27-4.43l1.57-1.88c1.15-1.34,2.05-2.23,2.71-2.66,1.33-.89,2.37-1.34,3.13-1.34s1.4.1,1.92.29.98.47,1.36.83c.82.76,1.23,1.73,1.23,2.91s-.27,2.41-.81,3.69-1,2.32-1.4,3.12-.77,1.61-1.13,2.43c-1.12,2.49-1.68,4.3-1.68,5.43,0,.51.4.76,1.21.76.63,0,1.2-.13,1.71-.4s.85-.4,1-.4c.31,0,.47.16.47.47,0,1.33-.68,2.44-2.04,3.33-.91.61-1.74.92-2.5.92s-1.39-.08-1.89-.25-.94-.42-1.33-.78c-.88-.79-1.32-1.89-1.32-3.31,0-1.73.54-3.89,1.63-6.49.79-1.77,1.35-2.99,1.68-3.65l.76-1.59c.46-.95.69-1.71.69-2.26s-.41-.83-1.23-.83Z"/>
  <path class="cls-1" d="M228.11,35.51c.31,0,.47.16.47.49,0,1.28-.66,2.39-1.99,3.31-.88.63-1.71.94-2.49.94s-1.4-.09-1.87-.27-.88-.46-1.25-.85c-.83-.89-1.25-2.12-1.25-3.69,0-.31.06-.81.18-1.5-1.21,1.86-2.24,3.18-3.11,3.94-1.74,1.58-3.45,2.37-5.12,2.37-2.64,0-4.37-1.19-5.19-3.58-.3-.88-.45-1.98-.45-3.31s.2-2.67.6-4.03.95-2.65,1.64-3.87,1.5-2.36,2.42-3.41,1.88-1.96,2.9-2.74c2.18-1.63,4.14-2.44,5.9-2.44s3.17.72,4.23,2.15c2.59-8.89,4.55-14.13,5.86-15.72.55-.66,1.13-.98,1.74-.98,1.01,0,1.78.29,2.3.87.16.19.25.39.25.58s-.12.55-.36,1.07-.59,1.36-1.05,2.53c-1.33,3.5-2.26,6.07-2.8,7.69-1.37,4.16-2.3,7.02-2.77,8.59l-1.23,4.14c-1.06,3.68-1.59,6.02-1.59,7.02s.37,1.5,1.1,1.5c.67,0,1.21-.09,1.61-.27l.85-.4c.16-.09.32-.13.47-.13ZM212.74,36.9c1.54,0,3.29-1.5,5.28-4.5,2.07-3.1,3.52-6.48,4.34-10.13-.06-1.01-.48-1.76-1.27-2.24-.27-.16-.68-.25-1.22-.25s-1.18.2-1.9.59-1.42.93-2.1,1.6-1.31,1.46-1.9,2.36-1.1,1.86-1.53,2.87c-.94,2.21-1.41,4.37-1.41,6.5s.57,3.19,1.72,3.19Z"/>
  <path class="cls-1" d="M238.78,35.85c.39,0,.58.25.58.76,0,.67-.31,1.36-.92,2.08-.89,1.04-2.09,1.57-3.6,1.57-1.73,0-2.91-.7-3.56-2.1-.24-.49-.36-1.09-.36-1.79s.12-1.48.37-2.34.55-1.76.92-2.71.76-1.9,1.2-2.87l1.19-2.82c.86-2.1,1.3-3.49,1.3-4.16s-.07-1.11-.21-1.33-.29-.38-.46-.5l-.45-.31c-.15-.1-.22-.29-.22-.55s.1-.51.3-.75.47-.45.79-.63c.67-.34,1.45-.51,2.35-.51,2.19,0,3.29.57,3.29,1.72,0,1.34-.35,2.87-1.05,4.6s-1.3,3.11-1.79,4.17l-1.34,3.09c-.98,2.27-1.48,3.9-1.48,4.9,0,.66.33.98.98.98s1.13-.08,1.45-.25.57-.25.72-.25ZM243.36,11.64c-.33.35-.7.63-1.12.85s-.86.35-1.32.4-.9-.02-1.31-.21-.76-.47-1.06-.83c-.64-.75-.96-1.5-.96-2.26s.12-1.33.37-1.71.56-.69.93-.93c.72-.46,1.39-.69,2.02-.69s1.13.04,1.48.13.68.24.97.45c.73.49,1.1,1.09,1.1,1.8s-.1,1.3-.3,1.77-.47.88-.79,1.23Z"/>
  <path class="cls-1" d="M261.65,34.08c0,1.37.48,2.06,1.45,2.06.67,0,1.23-.1,1.67-.31s.74-.31.88-.31c.31,0,.47.16.47.49,0,1.28-.67,2.39-2.01,3.31-1.42.97-2.86,1.21-4.34.72-.97-.34-1.68-1.08-2.15-2.21-.22-.58-.34-1.11-.34-1.59,0-.78.07-1.6.22-2.46-1.39,2.83-3.11,4.79-5.17,5.86-.82.42-1.69.63-2.62.63s-1.73-.19-2.4-.57-1.26-.91-1.73-1.58c-.97-1.4-1.41-3.16-1.32-5.28.09-2.65.87-5.26,2.35-7.81,1.36-2.39,3.07-4.33,5.14-5.84,2.07-1.54,4.01-2.3,5.81-2.3s3.26.83,4.36,2.48c1.03-1.65,1.94-2.48,2.73-2.48.85,0,1.49.16,1.92.47.82.6,1.11,1.12.87,1.57-3.74,7.66-5.67,12.43-5.77,14.31-.03.27-.04.55-.04.85ZM249.24,34.17c0,1.79.57,2.68,1.72,2.68.88,0,1.96-.75,3.24-2.24,1.88-2.19,3.54-5.14,4.99-8.86.46-1.16.85-2.33,1.16-3.49-.06-1.01-.48-1.76-1.27-2.24-.27-.16-.67-.25-1.2-.25s-1.15.19-1.86.58-1.39.92-2.06,1.59-1.28,1.46-1.86,2.38-1.08,1.91-1.51,2.99c-.91,2.3-1.36,4.58-1.36,6.84Z"/>
</svg>